<svg xmlns="http://www.w3.org/2000/svg" viewBox="0 0 1333.34 1333.34" shape-rendering="geometricPrecision" text-rendering="geometricPrecision" image-rendering="optimizeQuality" fill-rule="evenodd" clip-rule="evenodd"><path d="M101 .02h1131.32c55.79-.02 101.02 45.22 101.02 101l-.02 1131.32c.02 55.77-45.22 101-101 101H101c-55.77 0-101-45.23-101-101.02V101.02C0 45.23 45.23 0 101.02 0l-.02.02zm564.65 262.61c-207.5-.02-381.26 157.17-402.02 363.63h280.8v-60.61c0-11.15 9.06-20.2 20.2-20.2h202.03c11.15 0 20.2 9.06 20.2 20.2v202.03c0 11.15-9.06 20.2-20.2 20.2H564.63c-11.15 0-20.2-9.06-20.2-20.2v-60.61h-280.8c21.79 216.8 211.56 377.26 428.97 362.73 217.41-14.54 384.12-198.84 376.85-416.62-7.27-217.78-185.91-390.55-403.8-390.55z"/></svg>